<?xml version='1.0' encoding='UTF-8' standalone='no'?>
<!-- Created with Fritzing (http://www.fritzing.org/) -->
<svg xmlns="http://www.w3.org/2000/svg" baseProfile="tiny" version="1.2" height="2.48031in" viewBox="0 0 314.646 178.583" xmlns:svg="http://www.w3.org/2000/svg"  width="4.37008in" x="0in" y="0in">
 <g transform="matrix(-1, 0, 0, 1, 314.646, 0)">
  <g partID="854295990">
   <g  id="board">
    <rect fill-opacity="0.5" stroke="black" height="178.007" fill="none"  width="314.07" x="0.288" id="boardoutline" stroke-width="0.5" y="0.288"/>
   </g>
  </g>
  <g partID="854285882">
   <g transform="translate(20.0388,93.7696)">
    <g id="copper1" flipped="1">
     <g transform="matrix(-1, 0, 0, 1, 17.5752, 0)">
      <g>
       <g>
        <g>
         <g id="copper1">
          <circle stroke="black" fill="none" cy="10.6336" r="1.7008" id="connector1pad" cx="8.7872" stroke-width="1.13384"/>
          <rect stroke="black" height="3.4016" fill="none" width="3.4016" x="7.0864" y="8.9328" stroke-width="1.13384"/>
          <circle stroke="black" fill="none" cy="3.5464" r="1.7008" id="connector0pad" cx="8.7872" stroke-width="1.13384"/>
         </g>
        </g>
        <g>
         <circle stroke="black" fill="none" cy="10.6336" r="1.7008" id="connector1pad" cx="8.7872" stroke-width="1.13384"/>
         <rect stroke="black" height="3.4016" fill="none" width="3.4016" x="7.0864" y="8.9328" stroke-width="1.13384"/>
         <circle stroke="black" fill="none" cy="3.5464" r="1.7008" id="connector0pad" cx="8.7872" stroke-width="1.13384"/>
        </g>
       </g>
      </g>
     </g>
    </g>
   </g>
  </g>
  <g partID="854285872">
   <g transform="translate(9.2388,93.7696)">
    <g id="copper1" flipped="1">
     <g transform="matrix(-1, 0, 0, 1, 17.5752, 0)">
      <g>
       <g>
        <g>
         <g id="copper1">
          <circle stroke="black" fill="none" cy="10.6336" r="1.7008" id="connector1pad" cx="8.7872" stroke-width="1.13384"/>
          <rect stroke="black" height="3.4016" fill="none" width="3.4016" x="7.0864" y="8.9328" stroke-width="1.13384"/>
          <circle stroke="black" fill="none" cy="3.5464" r="1.7008" id="connector0pad" cx="8.7872" stroke-width="1.13384"/>
         </g>
        </g>
        <g>
         <circle stroke="black" fill="none" cy="10.6336" r="1.7008" id="connector1pad" cx="8.7872" stroke-width="1.13384"/>
         <rect stroke="black" height="3.4016" fill="none" width="3.4016" x="7.0864" y="8.9328" stroke-width="1.13384"/>
         <circle stroke="black" fill="none" cy="3.5464" r="1.7008" id="connector0pad" cx="8.7872" stroke-width="1.13384"/>
        </g>
       </g>
      </g>
     </g>
    </g>
   </g>
  </g>
  <g partID="854285842">
   <g transform="translate(275.639,93.7696)">
    <g id="copper1" flipped="1">
     <g transform="matrix(-1, 0, 0, 1, 17.5752, 0)">
      <g>
       <g>
        <g>
         <g id="copper1">
          <circle stroke="black" fill="none" cy="10.6336" r="1.7008" id="connector1pad" cx="8.7872" stroke-width="1.13384"/>
          <rect stroke="black" height="3.4016" fill="none" width="3.4016" x="7.0864" y="8.9328" stroke-width="1.13384"/>
          <circle stroke="black" fill="none" cy="3.5464" r="1.7008" id="connector0pad" cx="8.7872" stroke-width="1.13384"/>
         </g>
        </g>
        <g>
         <circle stroke="black" fill="none" cy="10.6336" r="1.7008" id="connector1pad" cx="8.7872" stroke-width="1.13384"/>
         <rect stroke="black" height="3.4016" fill="none" width="3.4016" x="7.0864" y="8.9328" stroke-width="1.13384"/>
         <circle stroke="black" fill="none" cy="3.5464" r="1.7008" id="connector0pad" cx="8.7872" stroke-width="1.13384"/>
        </g>
       </g>
      </g>
     </g>
    </g>
   </g>
  </g>
  <g partID="854285832">
   <g transform="translate(286.439,93.7696)">
    <g id="copper1" flipped="1">
     <g transform="matrix(-1, 0, 0, 1, 17.5752, 0)">
      <g>
       <g>
        <g>
         <g id="copper1">
          <circle stroke="black" fill="none" cy="10.6336" r="1.7008" id="connector1pad" cx="8.7872" stroke-width="1.13384"/>
          <rect stroke="black" height="3.4016" fill="none" width="3.4016" x="7.0864" y="8.9328" stroke-width="1.13384"/>
          <circle stroke="black" fill="none" cy="3.5464" r="1.7008" id="connector0pad" cx="8.7872" stroke-width="1.13384"/>
         </g>
        </g>
        <g>
         <circle stroke="black" fill="none" cy="10.6336" r="1.7008" id="connector1pad" cx="8.7872" stroke-width="1.13384"/>
         <rect stroke="black" height="3.4016" fill="none" width="3.4016" x="7.0864" y="8.9328" stroke-width="1.13384"/>
         <circle stroke="black" fill="none" cy="3.5464" r="1.7008" id="connector0pad" cx="8.7872" stroke-width="1.13384"/>
        </g>
       </g>
      </g>
     </g>
    </g>
   </g>
  </g>
  <g partID="854285802">
   <g transform="translate(232.439,93.7696)">
    <g id="copper1" flipped="1">
     <g transform="matrix(-1, 0, 0, 1, 17.5752, 0)">
      <g>
       <g>
        <g>
         <g id="copper1">
          <circle stroke="black" fill="none" cy="10.6336" r="1.7008" id="connector1pad" cx="8.7872" stroke-width="1.13384"/>
          <rect stroke="black" height="3.4016" fill="none" width="3.4016" x="7.0864" y="8.9328" stroke-width="1.13384"/>
          <circle stroke="black" fill="none" cy="3.5464" r="1.7008" id="connector0pad" cx="8.7872" stroke-width="1.13384"/>
         </g>
        </g>
        <g>
         <circle stroke="black" fill="none" cy="10.6336" r="1.7008" id="connector1pad" cx="8.7872" stroke-width="1.13384"/>
         <rect stroke="black" height="3.4016" fill="none" width="3.4016" x="7.0864" y="8.9328" stroke-width="1.13384"/>
         <circle stroke="black" fill="none" cy="3.5464" r="1.7008" id="connector0pad" cx="8.7872" stroke-width="1.13384"/>
        </g>
       </g>
      </g>
     </g>
    </g>
   </g>
  </g>
  <g partID="854285792">
   <g transform="translate(243.239,93.7696)">
    <g id="copper1" flipped="1">
     <g transform="matrix(-1, 0, 0, 1, 17.5752, 0)">
      <g>
       <g>
        <g>
         <g id="copper1">
          <circle stroke="black" fill="none" cy="10.6336" r="1.7008" id="connector1pad" cx="8.7872" stroke-width="1.13384"/>
          <rect stroke="black" height="3.4016" fill="none" width="3.4016" x="7.0864" y="8.9328" stroke-width="1.13384"/>
          <circle stroke="black" fill="none" cy="3.5464" r="1.7008" id="connector0pad" cx="8.7872" stroke-width="1.13384"/>
         </g>
        </g>
        <g>
         <circle stroke="black" fill="none" cy="10.6336" r="1.7008" id="connector1pad" cx="8.7872" stroke-width="1.13384"/>
         <rect stroke="black" height="3.4016" fill="none" width="3.4016" x="7.0864" y="8.9328" stroke-width="1.13384"/>
         <circle stroke="black" fill="none" cy="3.5464" r="1.7008" id="connector0pad" cx="8.7872" stroke-width="1.13384"/>
        </g>
       </g>
      </g>
     </g>
    </g>
   </g>
  </g>
  <g partID="854285762">
   <g transform="translate(59.6388,93.7696)">
    <g id="copper1" flipped="1">
     <g transform="matrix(-1, 0, 0, 1, 17.5752, 0)">
      <g>
       <g>
        <g>
         <g id="copper1">
          <circle stroke="black" fill="none" cy="10.6336" r="1.7008" id="connector1pad" cx="8.7872" stroke-width="1.13384"/>
          <rect stroke="black" height="3.4016" fill="none" width="3.4016" x="7.0864" y="8.9328" stroke-width="1.13384"/>
          <circle stroke="black" fill="none" cy="3.5464" r="1.7008" id="connector0pad" cx="8.7872" stroke-width="1.13384"/>
         </g>
        </g>
        <g>
         <circle stroke="black" fill="none" cy="10.6336" r="1.7008" id="connector1pad" cx="8.7872" stroke-width="1.13384"/>
         <rect stroke="black" height="3.4016" fill="none" width="3.4016" x="7.0864" y="8.9328" stroke-width="1.13384"/>
         <circle stroke="black" fill="none" cy="3.5464" r="1.7008" id="connector0pad" cx="8.7872" stroke-width="1.13384"/>
        </g>
       </g>
      </g>
     </g>
    </g>
   </g>
  </g>
  <g partID="854285752">
   <g transform="translate(48.8388,93.7696)">
    <g id="copper1" flipped="1">
     <g transform="matrix(-1, 0, 0, 1, 17.5752, 0)">
      <g>
       <g>
        <g>
         <g id="copper1">
          <circle stroke="black" fill="none" cy="10.6336" r="1.7008" id="connector1pad" cx="8.7872" stroke-width="1.13384"/>
          <rect stroke="black" height="3.4016" fill="none" width="3.4016" x="7.0864" y="8.9328" stroke-width="1.13384"/>
          <circle stroke="black" fill="none" cy="3.5464" r="1.7008" id="connector0pad" cx="8.7872" stroke-width="1.13384"/>
         </g>
        </g>
        <g>
         <circle stroke="black" fill="none" cy="10.6336" r="1.7008" id="connector1pad" cx="8.7872" stroke-width="1.13384"/>
         <rect stroke="black" height="3.4016" fill="none" width="3.4016" x="7.0864" y="8.9328" stroke-width="1.13384"/>
         <circle stroke="black" fill="none" cy="3.5464" r="1.7008" id="connector0pad" cx="8.7872" stroke-width="1.13384"/>
        </g>
       </g>
      </g>
     </g>
    </g>
   </g>
  </g>
  <g partID="854285722">
   <g transform="translate(88.4388,64.9696)">
    <g id="copper1" flipped="1">
     <g transform="matrix(-1, 0, 0, 1, 17.5752, 0)">
      <g>
       <g>
        <g>
         <g id="copper1">
          <circle stroke="black" fill="none" cy="10.6336" r="1.7008" id="connector1pad" cx="8.7872" stroke-width="1.13384"/>
          <rect stroke="black" height="3.4016" fill="none" width="3.4016" x="7.0864" y="8.9328" stroke-width="1.13384"/>
          <circle stroke="black" fill="none" cy="3.5464" r="1.7008" id="connector0pad" cx="8.7872" stroke-width="1.13384"/>
         </g>
        </g>
        <g>
         <circle stroke="black" fill="none" cy="10.6336" r="1.7008" id="connector1pad" cx="8.7872" stroke-width="1.13384"/>
         <rect stroke="black" height="3.4016" fill="none" width="3.4016" x="7.0864" y="8.9328" stroke-width="1.13384"/>
         <circle stroke="black" fill="none" cy="3.5464" r="1.7008" id="connector0pad" cx="8.7872" stroke-width="1.13384"/>
        </g>
       </g>
      </g>
     </g>
    </g>
   </g>
  </g>
  <g partID="854285712">
   <g transform="translate(77.6388,64.9696)">
    <g id="copper1" flipped="1">
     <g transform="matrix(-1, 0, 0, 1, 17.5752, 0)">
      <g>
       <g>
        <g>
         <g id="copper1">
          <circle stroke="black" fill="none" cy="10.6336" r="1.7008" id="connector1pad" cx="8.7872" stroke-width="1.13384"/>
          <rect stroke="black" height="3.4016" fill="none" width="3.4016" x="7.0864" y="8.9328" stroke-width="1.13384"/>
          <circle stroke="black" fill="none" cy="3.5464" r="1.7008" id="connector0pad" cx="8.7872" stroke-width="1.13384"/>
         </g>
        </g>
        <g>
         <circle stroke="black" fill="none" cy="10.6336" r="1.7008" id="connector1pad" cx="8.7872" stroke-width="1.13384"/>
         <rect stroke="black" height="3.4016" fill="none" width="3.4016" x="7.0864" y="8.9328" stroke-width="1.13384"/>
         <circle stroke="black" fill="none" cy="3.5464" r="1.7008" id="connector0pad" cx="8.7872" stroke-width="1.13384"/>
        </g>
       </g>
      </g>
     </g>
    </g>
   </g>
  </g>
  <g partID="854285682">
   <g transform="translate(206.7,64.9696)">
    <g id="copper1" flipped="1">
     <g transform="matrix(-1, 0, 0, 1, 17.5752, 0)">
      <g>
       <g>
        <g>
         <g id="copper1">
          <circle stroke="black" fill="none" cy="10.6336" r="1.7008" id="connector1pad" cx="8.7872" stroke-width="1.13384"/>
          <rect stroke="black" height="3.4016" fill="none" width="3.4016" x="7.0864" y="8.9328" stroke-width="1.13384"/>
          <circle stroke="black" fill="none" cy="3.5464" r="1.7008" id="connector0pad" cx="8.7872" stroke-width="1.13384"/>
         </g>
        </g>
        <g>
         <circle stroke="black" fill="none" cy="10.6336" r="1.7008" id="connector1pad" cx="8.7872" stroke-width="1.13384"/>
         <rect stroke="black" height="3.4016" fill="none" width="3.4016" x="7.0864" y="8.9328" stroke-width="1.13384"/>
         <circle stroke="black" fill="none" cy="3.5464" r="1.7008" id="connector0pad" cx="8.7872" stroke-width="1.13384"/>
        </g>
       </g>
      </g>
     </g>
    </g>
   </g>
  </g>
  <g partID="854285672">
   <g transform="translate(218.039,64.9696)">
    <g id="copper1" flipped="1">
     <g transform="matrix(-1, 0, 0, 1, 17.5752, 0)">
      <g>
       <g>
        <g>
         <g id="copper1">
          <circle stroke="black" fill="none" cy="10.6336" r="1.7008" id="connector1pad" cx="8.7872" stroke-width="1.13384"/>
          <rect stroke="black" height="3.4016" fill="none" width="3.4016" x="7.0864" y="8.9328" stroke-width="1.13384"/>
          <circle stroke="black" fill="none" cy="3.5464" r="1.7008" id="connector0pad" cx="8.7872" stroke-width="1.13384"/>
         </g>
        </g>
        <g>
         <circle stroke="black" fill="none" cy="10.6336" r="1.7008" id="connector1pad" cx="8.7872" stroke-width="1.13384"/>
         <rect stroke="black" height="3.4016" fill="none" width="3.4016" x="7.0864" y="8.9328" stroke-width="1.13384"/>
         <circle stroke="black" fill="none" cy="3.5464" r="1.7008" id="connector0pad" cx="8.7872" stroke-width="1.13384"/>
        </g>
       </g>
      </g>
     </g>
    </g>
   </g>
  </g>
  <g partID="854285642">
   <g transform="translate(163.5,50.5696)">
    <g id="copper1" flipped="1">
     <g transform="matrix(-1, 0, 0, 1, 17.5752, 0)">
      <g>
       <g>
        <g>
         <g id="copper1">
          <circle stroke="black" fill="none" cy="10.6336" r="1.7008" id="connector1pad" cx="8.7872" stroke-width="1.13384"/>
          <rect stroke="black" height="3.4016" fill="none" width="3.4016" x="7.0864" y="8.9328" stroke-width="1.13384"/>
          <circle stroke="black" fill="none" cy="3.5464" r="1.7008" id="connector0pad" cx="8.7872" stroke-width="1.13384"/>
         </g>
        </g>
        <g>
         <circle stroke="black" fill="none" cy="10.6336" r="1.7008" id="connector1pad" cx="8.7872" stroke-width="1.13384"/>
         <rect stroke="black" height="3.4016" fill="none" width="3.4016" x="7.0864" y="8.9328" stroke-width="1.13384"/>
         <circle stroke="black" fill="none" cy="3.5464" r="1.7008" id="connector0pad" cx="8.7872" stroke-width="1.13384"/>
        </g>
       </g>
      </g>
     </g>
    </g>
   </g>
  </g>
  <g partID="854285632">
   <g transform="translate(174.839,50.5696)">
    <g id="copper1" flipped="1">
     <g transform="matrix(-1, 0, 0, 1, 17.5752, 0)">
      <g>
       <g>
        <g>
         <g id="copper1">
          <circle stroke="black" fill="none" cy="10.6336" r="1.7008" id="connector1pad" cx="8.7872" stroke-width="1.13384"/>
          <rect stroke="black" height="3.4016" fill="none" width="3.4016" x="7.0864" y="8.9328" stroke-width="1.13384"/>
          <circle stroke="black" fill="none" cy="3.5464" r="1.7008" id="connector0pad" cx="8.7872" stroke-width="1.13384"/>
         </g>
        </g>
        <g>
         <circle stroke="black" fill="none" cy="10.6336" r="1.7008" id="connector1pad" cx="8.7872" stroke-width="1.13384"/>
         <rect stroke="black" height="3.4016" fill="none" width="3.4016" x="7.0864" y="8.9328" stroke-width="1.13384"/>
         <circle stroke="black" fill="none" cy="3.5464" r="1.7008" id="connector0pad" cx="8.7872" stroke-width="1.13384"/>
        </g>
       </g>
      </g>
     </g>
    </g>
   </g>
  </g>
  <g partID="854285602">
   <g transform="translate(120.839,50.5696)">
    <g id="copper1" flipped="1">
     <g transform="matrix(-1, 0, 0, 1, 17.5752, 0)">
      <g>
       <g>
        <g>
         <g id="copper1">
          <circle stroke="black" fill="none" cy="10.6336" r="1.7008" id="connector1pad" cx="8.7872" stroke-width="1.13384"/>
          <rect stroke="black" height="3.4016" fill="none" width="3.4016" x="7.0864" y="8.9328" stroke-width="1.13384"/>
          <circle stroke="black" fill="none" cy="3.5464" r="1.7008" id="connector0pad" cx="8.7872" stroke-width="1.13384"/>
         </g>
        </g>
        <g>
         <circle stroke="black" fill="none" cy="10.6336" r="1.7008" id="connector1pad" cx="8.7872" stroke-width="1.13384"/>
         <rect stroke="black" height="3.4016" fill="none" width="3.4016" x="7.0864" y="8.9328" stroke-width="1.13384"/>
         <circle stroke="black" fill="none" cy="3.5464" r="1.7008" id="connector0pad" cx="8.7872" stroke-width="1.13384"/>
        </g>
       </g>
      </g>
     </g>
    </g>
   </g>
  </g>
  <g partID="854285592">
   <g transform="translate(131.639,50.5696)">
    <g id="copper1" flipped="1">
     <g transform="matrix(-1, 0, 0, 1, 17.5752, 0)">
      <g>
       <g>
        <g>
         <g id="copper1">
          <circle stroke="black" fill="none" cy="10.6336" r="1.7008" id="connector1pad" cx="8.7872" stroke-width="1.13384"/>
          <rect stroke="black" height="3.4016" fill="none" width="3.4016" x="7.0864" y="8.9328" stroke-width="1.13384"/>
          <circle stroke="black" fill="none" cy="3.5464" r="1.7008" id="connector0pad" cx="8.7872" stroke-width="1.13384"/>
         </g>
        </g>
        <g>
         <circle stroke="black" fill="none" cy="10.6336" r="1.7008" id="connector1pad" cx="8.7872" stroke-width="1.13384"/>
         <rect stroke="black" height="3.4016" fill="none" width="3.4016" x="7.0864" y="8.9328" stroke-width="1.13384"/>
         <circle stroke="black" fill="none" cy="3.5464" r="1.7008" id="connector0pad" cx="8.7872" stroke-width="1.13384"/>
        </g>
       </g>
      </g>
     </g>
    </g>
   </g>
  </g>
  <g partID="854285572">
   <g transform="translate(153.239,7.36965)">
    <g id="copper1" flipped="1">
     <g transform="matrix(-1, 0, 0, 1, 17.5752, 0)">
      <g>
       <g>
        <g>
         <g id="copper1">
          <circle stroke="black" fill="none" cy="10.6336" r="1.7008" id="connector1pad" cx="8.7872" stroke-width="1.13384"/>
          <rect stroke="black" height="3.4016" fill="none" width="3.4016" x="7.0864" y="8.9328" stroke-width="1.13384"/>
          <circle stroke="black" fill="none" cy="3.5464" r="1.7008" id="connector0pad" cx="8.7872" stroke-width="1.13384"/>
         </g>
        </g>
        <g>
         <circle stroke="black" fill="none" cy="10.6336" r="1.7008" id="connector1pad" cx="8.7872" stroke-width="1.13384"/>
         <rect stroke="black" height="3.4016" fill="none" width="3.4016" x="7.0864" y="8.9328" stroke-width="1.13384"/>
         <circle stroke="black" fill="none" cy="3.5464" r="1.7008" id="connector0pad" cx="8.7872" stroke-width="1.13384"/>
        </g>
       </g>
      </g>
     </g>
    </g>
   </g>
  </g>
  <g partID="854285492">
   <g transform="translate(141.9,7.36965)">
    <g id="copper1" flipped="1">
     <g transform="matrix(-1, 0, 0, 1, 17.5752, 0)">
      <g>
       <g>
        <g>
         <g id="copper1">
          <circle stroke="black" fill="none" cy="10.6336" r="1.7008" id="connector1pad" cx="8.7872" stroke-width="1.13384"/>
          <rect stroke="black" height="3.4016" fill="none" width="3.4016" x="7.0864" y="8.9328" stroke-width="1.13384"/>
          <circle stroke="black" fill="none" cy="3.5464" r="1.7008" id="connector0pad" cx="8.7872" stroke-width="1.13384"/>
         </g>
        </g>
        <g>
         <circle stroke="black" fill="none" cy="10.6336" r="1.7008" id="connector1pad" cx="8.7872" stroke-width="1.13384"/>
         <rect stroke="black" height="3.4016" fill="none" width="3.4016" x="7.0864" y="8.9328" stroke-width="1.13384"/>
         <circle stroke="black" fill="none" cy="3.5464" r="1.7008" id="connector0pad" cx="8.7872" stroke-width="1.13384"/>
        </g>
       </g>
      </g>
     </g>
    </g>
   </g>
  </g>
  <g partID="854287511">
   <g transform="translate(138.987,167.156)">
    <g transform="matrix(-1.38778e-17,-1,1,-1.38778e-17,0,0)">
     <g  id="copper1">
      <g  id="copper0">
       <circle stroke="black" fill="none" cy="5.04" r="2.088"  id="connector0pin" cx="5.04" stroke-width="1.44"/>
       <circle stroke="black" fill="none" cy="12.24" r="2.088"  id="connector1pin" cx="5.04" stroke-width="1.44"/>
       <circle stroke="black" fill="none" cy="19.44" r="2.088"  id="connector2pin" cx="5.04" stroke-width="1.44"/>
       <circle stroke="black" fill="none" cy="26.64" r="2.088"  id="connector3pin" cx="5.04" stroke-width="1.44"/>
       <circle stroke="black" fill="none" cy="33.84" r="2.088"  id="connector4pin" cx="5.04" stroke-width="1.44"/>
      </g>
     </g>
    </g>
   </g>
  </g>
  <g partID="854287471">
   <g transform="translate(124.587,116.756)">
    <g transform="matrix(-1.38778e-17,-1,1,-1.38778e-17,0,0)">
     <g  id="copper1">
      <g  id="copper0">
       <circle stroke="black" fill="none" cy="5.04" r="2.088"  id="connector0pin" cx="5.04" stroke-width="1.44"/>
       <circle stroke="black" fill="none" cy="12.24" r="2.088"  id="connector1pin" cx="5.04" stroke-width="1.44"/>
       <circle stroke="black" fill="none" cy="19.44" r="2.088"  id="connector2pin" cx="5.04" stroke-width="1.44"/>
       <circle stroke="black" fill="none" cy="26.64" r="2.088"  id="connector3pin" cx="5.04" stroke-width="1.44"/>
       <circle stroke="black" fill="none" cy="33.84" r="2.088"  id="connector4pin" cx="5.04" stroke-width="1.44"/>
       <circle stroke="black" fill="none" cy="41.04" r="2.088"  id="connector5pin" cx="5.04" stroke-width="1.44"/>
       <circle stroke="black" fill="none" cy="48.24" r="2.088"  id="connector6pin" cx="5.04" stroke-width="1.44"/>
       <circle stroke="black" fill="none" cy="55.44" r="2.088"  id="connector7pin" cx="5.04" stroke-width="1.44"/>
       <circle stroke="black" fill="none" cy="62.64" r="2.088"  id="connector8pin" cx="5.04" stroke-width="1.44"/>
      </g>
     </g>
    </g>
   </g>
  </g>
  <g partID="854298211">
   <g transform="translate(184.131,150.416)">
    <g transform="matrix(0,-1,1,0,0,0)">
     <g  id="copper1">
      <!-- <rect width="55" x="10" y="15.5" fill="none" height="55" stroke="rgb(255, 191, 0)" stroke-width="20" />  -->
      <circle stroke="black" fill="none" cy="3.096" r="1.98"  id="connector0pin" cx="2.7" stroke-width="1.44"/>
      <circle stroke="black" fill="none" cy="3.096" r="1.98"  id="connector1pin" cx="31.5" stroke-width="1.44"/>
     </g>
    </g>
   </g>
  </g>
  <g partID="854298191">
   <g transform="translate(176.931,150.416)">
    <g transform="matrix(0,-1,1,0,0,0)">
     <g  id="copper1">
      <!-- <rect width="55" x="10" y="15.5" fill="none" height="55" stroke="rgb(255, 191, 0)" stroke-width="20" />  -->
      <circle stroke="black" fill="none" cy="3.096" r="1.98"  id="connector0pin" cx="2.7" stroke-width="1.44"/>
      <circle stroke="black" fill="none" cy="3.096" r="1.98"  id="connector1pin" cx="31.5" stroke-width="1.44"/>
     </g>
    </g>
   </g>
  </g>
  <g partID="854298171">
   <g transform="translate(169.731,150.416)">
    <g transform="matrix(0,-1,1,0,0,0)">
     <g  id="copper1">
      <!-- <rect width="55" x="10" y="15.5" fill="none" height="55" stroke="rgb(255, 191, 0)" stroke-width="20" />  -->
      <circle stroke="black" fill="none" cy="3.096" r="1.98"  id="connector0pin" cx="2.7" stroke-width="1.44"/>
      <circle stroke="black" fill="none" cy="3.096" r="1.98"  id="connector1pin" cx="31.5" stroke-width="1.44"/>
     </g>
    </g>
   </g>
  </g>
  <g partID="854298151">
   <g transform="translate(162.531,150.416)">
    <g transform="matrix(0,-1,1,0,0,0)">
     <g  id="copper1">
      <!-- <rect width="55" x="10" y="15.5" fill="none" height="55" stroke="rgb(255, 191, 0)" stroke-width="20" />  -->
      <circle stroke="black" fill="none" cy="3.096" r="1.98"  id="connector0pin" cx="2.7" stroke-width="1.44"/>
      <circle stroke="black" fill="none" cy="3.096" r="1.98"  id="connector1pin" cx="31.5" stroke-width="1.44"/>
     </g>
    </g>
   </g>
  </g>
  <g partID="854298131">
   <g transform="translate(155.331,150.416)">
    <g transform="matrix(0,-1,1,0,0,0)">
     <g  id="copper1">
      <!-- <rect width="55" x="10" y="15.5" fill="none" height="55" stroke="rgb(255, 191, 0)" stroke-width="20" />  -->
      <circle stroke="black" fill="none" cy="3.096" r="1.98"  id="connector0pin" cx="2.7" stroke-width="1.44"/>
      <circle stroke="black" fill="none" cy="3.096" r="1.98"  id="connector1pin" cx="31.5" stroke-width="1.44"/>
     </g>
    </g>
   </g>
  </g>
  <g partID="854298111">
   <g transform="translate(148.131,150.416)">
    <g transform="matrix(0,-1,1,0,0,0)">
     <g  id="copper1">
      <!-- <rect width="55" x="10" y="15.5" fill="none" height="55" stroke="rgb(255, 191, 0)" stroke-width="20" />  -->
      <circle stroke="black" fill="none" cy="3.096" r="1.98"  id="connector0pin" cx="2.7" stroke-width="1.44"/>
      <circle stroke="black" fill="none" cy="3.096" r="1.98"  id="connector1pin" cx="31.5" stroke-width="1.44"/>
     </g>
    </g>
   </g>
  </g>
  <g partID="854298091">
   <g transform="translate(140.931,150.416)">
    <g transform="matrix(0,-1,1,0,0,0)">
     <g  id="copper1">
      <!-- <rect width="55" x="10" y="15.5" fill="none" height="55" stroke="rgb(255, 191, 0)" stroke-width="20" />  -->
      <circle stroke="black" fill="none" cy="3.096" r="1.98"  id="connector0pin" cx="2.7" stroke-width="1.44"/>
      <circle stroke="black" fill="none" cy="3.096" r="1.98"  id="connector1pin" cx="31.5" stroke-width="1.44"/>
     </g>
    </g>
   </g>
  </g>
  <g partID="854296011">
   <g transform="translate(133.731,150.416)">
    <g transform="matrix(0,-1,1,0,0,0)">
     <g  id="copper1">
      <!-- <rect width="55" x="10" y="15.5" fill="none" height="55" stroke="rgb(255, 191, 0)" stroke-width="20" />  -->
      <circle stroke="black" fill="none" cy="3.096" r="1.98"  id="connector0pin" cx="2.7" stroke-width="1.44"/>
      <circle stroke="black" fill="none" cy="3.096" r="1.98"  id="connector1pin" cx="31.5" stroke-width="1.44"/>
     </g>
    </g>
   </g>
  </g>
  <g partID="854345181">
   <g transform="translate(72.9268,141.02)">
    <g  id="copper1">
     <!-- <rect width="55" x="10" y="15.5" fill="none" height="55" stroke="rgb(255, 191, 0)" stroke-width="20" />  -->
     <circle stroke="black" fill="none" cy="3.096" r="1.98"  id="connector0pin" cx="2.7" stroke-width="1.44"/>
     <circle stroke="black" fill="none" cy="3.096" r="1.98"  id="connector1pin" cx="31.5" stroke-width="1.44"/>
    </g>
   </g>
  </g>
  <g partID="854295881">
   <g transform="translate(126.531,150.416)">
    <g transform="matrix(0,-1,1,0,0,0)">
     <g  id="copper1">
      <!-- <rect width="55" x="10" y="15.5" fill="none" height="55" stroke="rgb(255, 191, 0)" stroke-width="20" />  -->
      <circle stroke="black" fill="none" cy="3.096" r="1.98"  id="connector0pin" cx="2.7" stroke-width="1.44"/>
      <circle stroke="black" fill="none" cy="3.096" r="1.98"  id="connector1pin" cx="31.5" stroke-width="1.44"/>
     </g>
    </g>
   </g>
  </g>
  <g partID="854362841">
   <g transform="translate(6.0748,139.364)">
    <g  id="copper1">
     <circle stroke="black" fill="none" cy="19.152" r="1.98"  id="connector0pad" cx="4.752" stroke-width="1.44"/>
     <circle stroke="black" fill="none" cy="4.752" r="1.98"  id="connector1pad" cx="4.752" stroke-width="1.44"/>
    </g>
   </g>
  </g>
  <g partID="854362821">
   <g transform="translate(6.0748,70.964)">
    <g  id="copper1">
     <circle stroke="black" fill="none" cy="19.152" r="1.98"  id="connector0pad" cx="4.752" stroke-width="1.44"/>
     <circle stroke="black" fill="none" cy="4.752" r="1.98"  id="connector1pad" cx="4.752" stroke-width="1.44"/>
    </g>
   </g>
  </g>
  <g partID="854357111">
   <g transform="translate(92.4748,27.764)">
    <g  id="copper1">
     <circle stroke="black" fill="none" cy="19.152" r="1.98"  id="connector0pad" cx="4.752" stroke-width="1.44"/>
     <circle stroke="black" fill="none" cy="4.752" r="1.98"  id="connector1pad" cx="4.752" stroke-width="1.44"/>
    </g>
   </g>
  </g>
  <g partID="854340061">
   <g transform="translate(106.875,70.964)">
    <g  id="copper1">
     <circle stroke="black" fill="none" cy="22.752" r="1.98"  id="connector0pad" cx="4.752" stroke-width="1.44"/>
     <circle stroke="black" fill="none" cy="4.752" r="1.98"  id="connector1pad" cx="4.752" stroke-width="1.44"/>
    </g>
   </g>
  </g>
  <g partID="854339811">
   <g transform="translate(34.8748,70.964)">
    <g  id="copper1">
     <circle stroke="black" fill="none" cy="19.152" r="1.98"  id="connector0pad" cx="4.752" stroke-width="1.44"/>
     <circle stroke="black" fill="none" cy="4.752" r="1.98"  id="connector1pad" cx="4.752" stroke-width="1.44"/>
    </g>
   </g>
  </g>
  <g partID="854335571">
   <g transform="translate(42.0748,106.964)">
    <g  id="copper1">
     <circle stroke="black" fill="none" cy="4.752" r="1.98"  id="connector0pad" cx="4.752" stroke-width="1.44"/>
     <circle stroke="black" fill="none" cy="4.752" r="1.98"  id="connector1pad" cx="26.352" stroke-width="1.44"/>
    </g>
   </g>
  </g>
  <g partID="854331631">
   <g transform="translate(24.0748,121.364)">
    <g  id="copper1">
     <circle stroke="black" fill="none" cy="4.752" r="1.98"  id="connector0pad" cx="4.752" stroke-width="1.44"/>
     <circle stroke="black" fill="none" cy="4.752" r="1.98"  id="connector1pad" cx="26.352" stroke-width="1.44"/>
    </g>
   </g>
  </g>
  <g partID="854368411">
   <g transform="translate(193.275,142.964)">
    <g  id="copper1">
     <circle stroke="black" fill="none" cy="4.752" r="1.98"  id="connector0pad" cx="4.752" stroke-width="1.44"/>
     <circle stroke="black" fill="none" cy="19.152" r="1.98"  id="connector1pad" cx="4.752" stroke-width="1.44"/>
    </g>
   </g>
  </g>
  <g partID="854367991">
   <g transform="translate(74.4748,16.964)">
    <g  id="copper1">
     <circle stroke="black" fill="none" cy="4.752" r="1.98"  id="connector0pad" cx="4.752" stroke-width="1.44"/>
     <circle stroke="black" fill="none" cy="4.752" r="1.98"  id="connector1pad" cx="26.352" stroke-width="1.44"/>
    </g>
   </g>
  </g>
  <g partID="854367711">
   <g transform="translate(135.675,24.164)">
    <g  id="copper1">
     <circle stroke="black" fill="none" cy="4.752" r="1.98"  id="connector0pad" cx="4.752" stroke-width="1.44"/>
     <circle stroke="black" fill="none" cy="4.752" r="1.98"  id="connector1pad" cx="40.752" stroke-width="1.44"/>
    </g>
   </g>
  </g>
  <g partID="854366931">
   <g transform="translate(171.675,38.564)">
    <g  id="copper1">
     <circle stroke="black" fill="none" cy="4.752" r="1.98"  id="connector0pad" cx="4.752" stroke-width="1.44"/>
     <circle stroke="black" fill="none" cy="4.752" r="1.98"  id="connector1pad" cx="22.752" stroke-width="1.44"/>
    </g>
   </g>
  </g>
  <g partID="854363231">
   <g transform="translate(70.8748,6.16405)">
    <g  id="copper1">
     <circle stroke="black" fill="none" cy="4.752" r="1.98"  id="connector0pad" cx="4.752" stroke-width="1.44"/>
     <circle stroke="black" fill="none" cy="4.752" r="1.98"  id="connector1pad" cx="22.752" stroke-width="1.44"/>
    </g>
   </g>
  </g>
  <g partID="854359011">
   <g transform="translate(142.875,38.564)">
    <g  id="copper1">
     <circle stroke="black" fill="none" cy="4.752" r="1.98"  id="connector0pad" cx="4.752" stroke-width="1.44"/>
     <circle stroke="black" fill="none" cy="4.752" r="1.98"  id="connector1pad" cx="26.352" stroke-width="1.44"/>
    </g>
   </g>
  </g>
  <g partID="854353681">
   <g transform="translate(211.275,42.164)">
    <g  id="copper1">
     <circle stroke="black" fill="none" cy="4.752" r="1.98"  id="connector0pad" cx="4.752" stroke-width="1.44"/>
     <circle stroke="black" fill="none" cy="19.152" r="1.98"  id="connector1pad" cx="4.752" stroke-width="1.44"/>
    </g>
   </g>
  </g>
  <g partID="854349791">
   <g transform="translate(240.075,70.964)">
    <g  id="copper1">
     <circle stroke="black" fill="none" cy="4.752" r="1.98"  id="connector0pad" cx="4.752" stroke-width="1.44"/>
     <circle stroke="black" fill="none" cy="4.752" r="1.98"  id="connector1pad" cx="19.152" stroke-width="1.44"/>
    </g>
   </g>
  </g>
  <g partID="854344631">
   <g transform="translate(283.275,70.964)">
    <g  id="copper1">
     <circle stroke="black" fill="none" cy="4.752" r="1.98"  id="connector0pad" cx="4.752" stroke-width="1.44"/>
     <circle stroke="black" fill="none" cy="4.752" r="1.98"  id="connector1pad" cx="19.152" stroke-width="1.44"/>
    </g>
   </g>
  </g>
  <g partID="854342811">
   <g transform="translate(240.075,106.964)">
    <g  id="copper1">
     <circle stroke="black" fill="none" cy="4.752" r="1.98"  id="connector0pad" cx="4.752" stroke-width="1.44"/>
     <circle stroke="black" fill="none" cy="4.752" r="1.98"  id="connector1pad" cx="19.152" stroke-width="1.44"/>
    </g>
   </g>
  </g>
  <g partID="854342061">
   <g transform="translate(193.275,70.964)">
    <g  id="copper1">
     <circle stroke="black" fill="none" cy="4.752" r="1.98"  id="connector0pad" cx="4.752" stroke-width="1.44"/>
     <circle stroke="black" fill="none" cy="22.752" r="1.98"  id="connector1pad" cx="4.752" stroke-width="1.44"/>
    </g>
   </g>
  </g>
  <g partID="854341451">
   <g transform="translate(171.675,63.764)">
    <g  id="copper1">
     <circle stroke="black" fill="none" cy="4.752" r="1.98"  id="connector0pad" cx="4.752" stroke-width="1.44"/>
     <circle stroke="black" fill="none" cy="4.752" r="1.98"  id="connector1pad" cx="19.152" stroke-width="1.44"/>
    </g>
   </g>
  </g>
  <g partID="854340521">
   <g transform="translate(114.075,67.364)">
    <g  id="copper1">
     <circle stroke="black" fill="none" cy="4.752" r="1.98"  id="connector0pad" cx="4.752" stroke-width="1.44"/>
     <circle stroke="black" fill="none" cy="4.752" r="1.98"  id="connector1pad" cx="26.352" stroke-width="1.44"/>
    </g>
   </g>
  </g>
  <g partID="854335251">
   <g transform="translate(150.075,63.764)">
    <g  id="copper1">
     <circle stroke="black" fill="none" cy="4.752" r="1.98"  id="connector0pad" cx="4.752" stroke-width="1.44"/>
     <circle stroke="black" fill="none" cy="4.752" r="1.98"  id="connector1pad" cx="19.152" stroke-width="1.44"/>
    </g>
   </g>
  </g>
  <g partID="854336511">
   <g transform="translate(216.963,155.564)">
    <g transform="matrix(-2.498e-16,-1,1,-2.498e-16,0,0)">
     <g  id="copper1">
      <circle stroke="black" fill="none" cy="8.064" r="1.908"  id="connector0pad" connectorname="1" cx="4.24813" stroke-width="1.512"/>
      <circle stroke="black" fill="none" cy="2.664" r="1.908"  id="connector1pad" connectorname="2" cx="7.84813" stroke-width="1.512"/>
      <circle stroke="black" fill="none" cy="8.064" r="1.908"  id="connector2pad" connectorname="3" cx="11.4481" stroke-width="1.512"/>
      <g  id="copper0">
       <circle stroke="black" fill="none" cy="8.064" r="1.908"  id="connector0pad" connectorname="1" cx="4.24813" stroke-width="1.512"/>
       <circle stroke="black" fill="none" cy="2.664" r="1.908"  id="connector1pad" connectorname="2" cx="7.84813" stroke-width="1.512"/>
       <circle stroke="black" fill="none" cy="8.064" r="1.908"  id="connector2pad" connectorname="3" cx="11.4481" stroke-width="1.512"/>
      </g>
     </g>
    </g>
   </g>
  </g>
  <g partID="854336541">
   <g transform="translate(65.2228,172.232)">
    <g transform="matrix(-1,0,0,-1,0,0)">
     <g  id="copper1">
      <circle stroke="black" fill="none" cy="8.064" r="1.908"  id="connector0pad" connectorname="1" cx="4.24813" stroke-width="1.512"/>
      <circle stroke="black" fill="none" cy="2.664" r="1.908"  id="connector1pad" connectorname="2" cx="7.84813" stroke-width="1.512"/>
      <circle stroke="black" fill="none" cy="8.064" r="1.908"  id="connector2pad" connectorname="3" cx="11.4481" stroke-width="1.512"/>
      <g  id="copper0">
       <circle stroke="black" fill="none" cy="8.064" r="1.908"  id="connector0pad" connectorname="1" cx="4.24813" stroke-width="1.512"/>
       <circle stroke="black" fill="none" cy="2.664" r="1.908"  id="connector1pad" connectorname="2" cx="7.84813" stroke-width="1.512"/>
       <circle stroke="black" fill="none" cy="8.064" r="1.908"  id="connector2pad" connectorname="3" cx="11.4481" stroke-width="1.512"/>
      </g>
     </g>
    </g>
   </g>
  </g>
 </g>
</svg>
