G04 MADE WITH FRITZING*
G04 WWW.FRITZING.ORG*
G04 DOUBLE SIDED*
G04 HOLES PLATED*
G04 CONTOUR ON CENTER OF CONTOUR VECTOR*
%ASAXBY*%
%FSLAX23Y23*%
%MOIN*%
%OFA0B0*%
%SFA1.0B1.0*%
%ADD10C,0.062992*%
%ADD11C,0.078000*%
%ADD12C,0.075000*%
%ADD13C,0.074000*%
%ADD14R,0.062992X0.062992*%
%ADD15C,0.032000*%
%LNCOPPER0*%
G90*
G70*
G54D10*
X400Y1030D03*
X400Y1129D03*
X400Y1030D03*
X400Y1129D03*
X250Y1030D03*
X250Y1129D03*
X250Y1030D03*
X250Y1129D03*
X3950Y1030D03*
X3950Y1129D03*
X3950Y1030D03*
X3950Y1129D03*
X4100Y1030D03*
X4100Y1129D03*
X4100Y1030D03*
X4100Y1129D03*
X3350Y1030D03*
X3350Y1129D03*
X3350Y1030D03*
X3350Y1129D03*
X3500Y1030D03*
X3500Y1129D03*
X3500Y1030D03*
X3500Y1129D03*
X950Y1030D03*
X950Y1129D03*
X950Y1030D03*
X950Y1129D03*
X800Y1030D03*
X800Y1129D03*
X800Y1030D03*
X800Y1129D03*
X1350Y1430D03*
X1350Y1529D03*
X1350Y1430D03*
X1350Y1529D03*
X1200Y1430D03*
X1200Y1529D03*
X1200Y1430D03*
X1200Y1529D03*
X2993Y1430D03*
X2993Y1529D03*
X2993Y1430D03*
X2993Y1529D03*
X3150Y1430D03*
X3150Y1529D03*
X3150Y1430D03*
X3150Y1529D03*
X2393Y1630D03*
X2393Y1729D03*
X2393Y1630D03*
X2393Y1729D03*
X2550Y1630D03*
X2550Y1729D03*
X2550Y1630D03*
X2550Y1729D03*
X1800Y1630D03*
X1800Y1729D03*
X1800Y1630D03*
X1800Y1729D03*
X1950Y1630D03*
X1950Y1729D03*
X1950Y1630D03*
X1950Y1729D03*
X2250Y2230D03*
X2250Y2329D03*
X2250Y2230D03*
X2250Y2329D03*
X2093Y2230D03*
X2093Y2329D03*
X2093Y2230D03*
X2093Y2329D03*
G54D11*
X2000Y229D03*
X2100Y229D03*
X2200Y229D03*
X2300Y229D03*
X2400Y229D03*
X1800Y929D03*
X1900Y929D03*
X2000Y929D03*
X2100Y929D03*
X2200Y929D03*
X2300Y929D03*
X2400Y929D03*
X2500Y929D03*
X2600Y929D03*
G54D12*
X2600Y429D03*
X2600Y829D03*
X2500Y429D03*
X2500Y829D03*
X2400Y429D03*
X2400Y829D03*
X2300Y429D03*
X2300Y829D03*
X2200Y429D03*
X2200Y829D03*
X2100Y429D03*
X2100Y829D03*
X2000Y429D03*
X2000Y829D03*
X1900Y429D03*
X1900Y829D03*
X1050Y479D03*
X1450Y479D03*
X1800Y429D03*
X1800Y829D03*
X150Y279D03*
X150Y479D03*
X150Y1229D03*
X150Y1429D03*
X1400Y1829D03*
X1400Y1979D03*
X1350Y1179D03*
X1350Y1329D03*
X550Y1229D03*
X550Y1379D03*
X650Y929D03*
X950Y929D03*
X400Y729D03*
X700Y729D03*
X2750Y429D03*
X2750Y229D03*
X1100Y2179D03*
X1400Y2179D03*
X1950Y2079D03*
X2450Y2079D03*
X2500Y1879D03*
X2700Y1879D03*
X1050Y2329D03*
X1300Y2329D03*
X2050Y1879D03*
X2350Y1879D03*
X3000Y1829D03*
X3000Y1629D03*
X3400Y1429D03*
X3600Y1429D03*
X4000Y1429D03*
X4200Y1429D03*
X3400Y929D03*
X3600Y929D03*
X3000Y1329D03*
X3000Y1129D03*
X2450Y1529D03*
X2650Y1529D03*
X1650Y1479D03*
X1900Y1479D03*
X2150Y1529D03*
X2350Y1529D03*
G54D13*
X3125Y379D03*
X3050Y429D03*
X3125Y479D03*
X847Y200D03*
X797Y125D03*
X747Y200D03*
G54D14*
X400Y1030D03*
X400Y1030D03*
X250Y1030D03*
X250Y1030D03*
X3950Y1030D03*
X3950Y1030D03*
X4100Y1030D03*
X4100Y1030D03*
X3350Y1030D03*
X3350Y1030D03*
X3500Y1030D03*
X3500Y1030D03*
X950Y1030D03*
X950Y1030D03*
X800Y1030D03*
X800Y1030D03*
X1350Y1430D03*
X1350Y1430D03*
X1200Y1430D03*
X1200Y1430D03*
X2993Y1430D03*
X2993Y1430D03*
X3150Y1430D03*
X3150Y1430D03*
X2393Y1630D03*
X2393Y1630D03*
X2550Y1630D03*
X2550Y1630D03*
X1800Y1630D03*
X1800Y1630D03*
X1950Y1630D03*
X1950Y1630D03*
X2250Y2230D03*
X2250Y2230D03*
X2093Y2230D03*
X2093Y2230D03*
G54D15*
X1100Y1181D02*
X1100Y1027D01*
D02*
X1100Y1027D02*
X983Y1030D01*
D02*
X1316Y1179D02*
X1100Y1181D01*
D02*
X950Y1161D02*
X951Y1380D01*
D02*
X951Y1380D02*
X585Y1379D01*
D02*
X399Y1231D02*
X400Y1161D01*
D02*
X516Y1229D02*
X399Y1231D01*
D02*
X1552Y1429D02*
X1383Y1430D01*
D02*
X1620Y1463D02*
X1552Y1429D01*
D02*
X2960Y1430D02*
X2650Y1429D01*
D02*
X2650Y1429D02*
X2650Y1495D01*
D02*
X2434Y1558D02*
X2409Y1602D01*
D02*
X3318Y1030D02*
X2998Y1027D01*
D02*
X2998Y1027D02*
X3000Y1095D01*
D02*
X3952Y927D02*
X3635Y929D01*
D02*
X3951Y998D02*
X3952Y927D01*
D02*
X3385Y959D02*
X3365Y1001D01*
D02*
X4201Y480D02*
X3158Y479D01*
D02*
X4200Y1395D02*
X4201Y480D01*
D02*
X3952Y1429D02*
X3951Y1161D01*
D02*
X3966Y1429D02*
X3952Y1429D01*
D02*
X1016Y479D02*
X548Y480D01*
D02*
X548Y480D02*
X548Y927D01*
D02*
X548Y927D02*
X399Y927D01*
D02*
X548Y927D02*
X616Y928D01*
D02*
X399Y927D02*
X400Y998D01*
D02*
X2099Y331D02*
X1453Y331D01*
D02*
X1453Y331D02*
X1451Y445D01*
D02*
X2100Y264D02*
X2099Y331D01*
D02*
X3966Y1429D02*
X3635Y1429D01*
D02*
X3350Y1161D02*
X3351Y1429D01*
D02*
X3351Y1429D02*
X3366Y1429D01*
D02*
X2200Y893D02*
X2200Y863D01*
D02*
X2500Y893D02*
X2500Y863D01*
D02*
X2600Y893D02*
X2600Y863D01*
D02*
X2300Y893D02*
X2300Y863D01*
D02*
X2400Y893D02*
X2400Y863D01*
D02*
X2100Y893D02*
X2100Y863D01*
D02*
X2998Y1595D02*
X2995Y1561D01*
D02*
X2402Y78D02*
X2401Y193D01*
D02*
X901Y78D02*
X2402Y78D01*
D02*
X827Y112D02*
X901Y78D01*
D02*
X2198Y127D02*
X1199Y127D01*
D02*
X901Y227D02*
X876Y215D01*
D02*
X1199Y227D02*
X901Y227D01*
D02*
X1199Y127D02*
X1199Y227D01*
D02*
X2200Y193D02*
X2198Y127D01*
D02*
X1395Y1795D02*
X1356Y1561D01*
D02*
X1950Y1877D02*
X1950Y1761D01*
D02*
X2016Y1878D02*
X1950Y1877D01*
D02*
X2384Y1760D02*
X2360Y1846D01*
D02*
X1950Y1877D02*
X1950Y1761D01*
D02*
X2016Y1878D02*
X1950Y1877D01*
D02*
X150Y2329D02*
X150Y1463D01*
D02*
X1016Y2329D02*
X150Y2329D01*
D02*
X150Y1195D02*
X150Y513D01*
D02*
X1850Y2329D02*
X1335Y2329D01*
D02*
X2060Y2329D02*
X1850Y2329D01*
D02*
X1850Y2329D02*
X2049Y2130D01*
D02*
X2049Y2130D02*
X2050Y1913D01*
D02*
X1300Y2295D02*
X1298Y1981D01*
D02*
X1298Y1981D02*
X1366Y1980D01*
D02*
X150Y177D02*
X603Y177D01*
D02*
X603Y177D02*
X715Y195D01*
D02*
X150Y245D02*
X150Y177D01*
D02*
X2998Y1877D02*
X2999Y1863D01*
D02*
X2735Y1878D02*
X2998Y1877D01*
D02*
X2385Y1879D02*
X2466Y1879D01*
D02*
X548Y2180D02*
X1066Y2179D01*
D02*
X550Y1413D02*
X548Y2180D01*
D02*
X1602Y2180D02*
X1435Y2179D01*
D02*
X1602Y2080D02*
X1602Y2180D01*
D02*
X1916Y2079D02*
X1602Y2080D01*
D02*
X4201Y2080D02*
X2485Y2079D01*
D02*
X4200Y1463D02*
X4201Y2080D01*
D02*
X2716Y429D02*
X2635Y429D01*
D02*
X3103Y227D02*
X2785Y229D01*
D02*
X3121Y346D02*
X3103Y227D01*
D02*
X2253Y2130D02*
X2251Y2198D01*
D02*
X2248Y1477D02*
X2253Y2130D01*
D02*
X2198Y1377D02*
X2248Y1477D01*
D02*
X2200Y964D02*
X2198Y1377D01*
D02*
X1801Y1378D02*
X1800Y1598D01*
D02*
X2099Y1378D02*
X1801Y1378D01*
D02*
X2100Y964D02*
X2099Y1378D01*
D02*
X2549Y1378D02*
X2550Y1598D01*
D02*
X2302Y1378D02*
X2549Y1378D01*
D02*
X2300Y964D02*
X2302Y1378D01*
D02*
X1200Y1280D02*
X1200Y1398D01*
D02*
X2001Y1280D02*
X1200Y1280D01*
D02*
X2000Y964D02*
X2001Y1280D01*
D02*
X2399Y1280D02*
X3152Y1280D01*
D02*
X3152Y1280D02*
X3151Y1398D01*
D02*
X2400Y964D02*
X2399Y1280D01*
D02*
X3501Y830D02*
X3500Y998D01*
D02*
X2901Y1179D02*
X2901Y828D01*
D02*
X2502Y1177D02*
X2901Y1179D01*
D02*
X2901Y828D02*
X3501Y830D01*
D02*
X2501Y964D02*
X2502Y1177D01*
D02*
X2800Y928D02*
X2636Y929D01*
D02*
X2800Y679D02*
X2800Y928D01*
D02*
X3000Y679D02*
X2800Y679D01*
D02*
X4101Y679D02*
X3000Y679D01*
D02*
X4100Y998D02*
X4101Y679D01*
D02*
X1200Y1079D02*
X1900Y1077D01*
D02*
X800Y830D02*
X1200Y830D01*
D02*
X1200Y830D02*
X1200Y1079D01*
D02*
X1900Y1077D02*
X1900Y964D01*
D02*
X800Y998D02*
X800Y830D01*
D02*
X1800Y893D02*
X1800Y863D01*
D02*
X1900Y893D02*
X1900Y863D01*
D02*
X2000Y893D02*
X2000Y863D01*
D02*
X1866Y429D02*
X1835Y429D01*
D02*
X1966Y429D02*
X1935Y429D01*
D02*
X2066Y429D02*
X2035Y429D01*
D02*
X2135Y429D02*
X2166Y429D01*
D02*
X2235Y429D02*
X2266Y429D01*
D02*
X2335Y429D02*
X2366Y429D01*
D02*
X2435Y429D02*
X2466Y429D01*
D02*
X2535Y429D02*
X2566Y429D01*
D02*
X2200Y395D02*
X2200Y264D01*
D02*
X51Y1330D02*
X51Y381D01*
D02*
X2250Y2428D02*
X1200Y2428D01*
D02*
X51Y2428D02*
X51Y1529D01*
D02*
X951Y2428D02*
X51Y2428D01*
D02*
X51Y1529D02*
X51Y1330D01*
D02*
X1200Y2428D02*
X951Y2428D01*
D02*
X1298Y381D02*
X1298Y227D01*
D02*
X1298Y227D02*
X1965Y229D01*
D02*
X51Y381D02*
X1298Y381D01*
D02*
X2250Y2361D02*
X2250Y2428D01*
D02*
X248Y1329D02*
X250Y1161D01*
D02*
X51Y1330D02*
X248Y1329D01*
D02*
X800Y1329D02*
X800Y1161D01*
D02*
X248Y1329D02*
X800Y1329D01*
D02*
X1200Y1929D02*
X1200Y1561D01*
D02*
X1200Y2428D02*
X1200Y1929D01*
D02*
X2451Y2180D02*
X2352Y2180D01*
D02*
X2352Y2180D02*
X2352Y1981D01*
D02*
X2551Y1981D02*
X2550Y1761D01*
D02*
X2352Y1981D02*
X2551Y1981D01*
D02*
X2451Y2428D02*
X2451Y2180D01*
D02*
X2250Y2428D02*
X2451Y2428D01*
D02*
X3150Y1729D02*
X3150Y1561D01*
D02*
X2583Y1729D02*
X3150Y1729D01*
D02*
X3502Y1529D02*
X3500Y1161D01*
D02*
X3183Y1529D02*
X3502Y1529D01*
D02*
X4102Y1529D02*
X4101Y1161D01*
D02*
X3502Y1529D02*
X4102Y1529D01*
D02*
X1801Y1929D02*
X1800Y1761D01*
D02*
X1200Y1929D02*
X1801Y1929D01*
D02*
X248Y728D02*
X250Y998D01*
D02*
X366Y729D02*
X248Y728D01*
D02*
X1601Y728D02*
X1601Y830D01*
D02*
X1601Y830D02*
X1766Y829D01*
D02*
X735Y729D02*
X1601Y728D01*
D02*
X2380Y1600D02*
X2364Y1560D01*
D02*
X950Y963D02*
X950Y998D01*
D02*
X2299Y328D02*
X2300Y264D01*
D02*
X2899Y430D02*
X2899Y331D01*
D02*
X2899Y331D02*
X2299Y328D01*
D02*
X3018Y429D02*
X2899Y430D01*
D02*
X2149Y2129D02*
X2109Y2202D01*
D02*
X2150Y1563D02*
X2149Y2129D01*
D02*
X2125Y1542D02*
X1974Y1618D01*
D02*
X1911Y1511D02*
X1940Y1599D01*
G04 End of Copper0*
M02*