; NON-PLATED HOLES START AT T1
; THROUGH (PLATED) HOLES START AT T100
M48
INCH
T100C0.035000
T101C0.032000
T102C0.031497
T103C0.038000
%
T100
X021003Y004286
X019003Y004286
X034003Y014287
X020003Y004286
X007003Y007287
X005503Y014287
X018003Y004286
X021003Y008287
X036003Y009287
X019503Y014786
X004003Y007287
X001503Y004787
X010503Y004787
X030003Y018286
X027503Y014287
X016503Y014786
X040003Y014287
X026003Y008287
X001503Y014287
X020503Y018786
X013003Y023286
X022003Y008287
X009503Y009287
X023503Y018786
X025003Y004286
X013503Y018286
X027503Y004286
X024003Y004286
X025003Y008287
X034003Y009287
X027003Y018786
X006503Y009287
X042003Y014287
X024503Y020786
X023003Y004286
X010503Y023286
X014003Y021786
X011003Y021786
X001503Y002786
X023503Y015286
X020003Y008287
X013503Y020286
X021503Y015286
X019503Y020786
X015503Y011787
X036003Y014287
X005503Y012287
X027503Y002286
X024003Y008287
X001503Y012287
X023003Y008287
X026503Y015286
X015503Y014287
X026003Y004286
X014503Y004787
X024503Y018786
X022003Y004286
X018003Y008287
X024503Y015286
X027503Y011787
X019003Y008287
X030003Y016286
T101
X007968Y001251
X008468Y002001
X030503Y004286
X031253Y003786
X007468Y002001
X031253Y004787
T102
X019503Y016302
X033503Y011286
X023929Y017286
X029929Y014302
X031503Y014302
X004003Y011286
X020929Y022302
X013503Y015286
X004003Y010302
X041003Y010302
X029929Y015286
X031503Y015286
X002503Y010302
X013503Y014302
X012003Y014302
X035003Y011286
X020929Y023286
X008003Y010302
X039503Y011286
X041003Y011286
X018003Y016302
X019503Y017286
X025503Y016302
X012003Y015286
X035003Y010302
X008003Y011286
X022503Y022302
X009503Y011286
X033503Y010302
X039503Y010302
X023929Y016302
X025503Y017286
X018003Y017286
X002503Y011286
X022503Y023286
X009503Y010302
T103
X025003Y009287
X022003Y002286
X026003Y009287
X021003Y002286
X020003Y002286
X020003Y009287
X024003Y002286
X019003Y009287
X023003Y009287
X021003Y009287
X022003Y009287
X024003Y009287
X023003Y002286
X018003Y009287
T00
M30
